<svg xmlns="http://www.w3.org/2000/svg" viewBox="0 0 24 24" role="img" aria-hidden="true">
  <path fill="white" d="M10.533 1.279C5.352 1.279 1.126 5.419 1.126 10.558c0 5.139 4.226 9.279 9.407 9.279 2.234 0 4.291-.77 5.907-2.058l4.353 4.353c.39.39 1.024.39 1.415 0 .39-.39.39-1.024 0-1.415l-4.344-4.344c1.298-1.59 2.076-3.611 2.076-5.816 0-5.139-4.226-9.279-9.406-9.279zm-7.408 9.279c0-4.005 3.302-7.279 7.408-7.279 4.105 0 7.407 3.274 7.407 7.279 0 4.005-3.302 7.279-7.407 7.279-4.106 0-7.408-3.274-7.408-7.279z"/>
</svg>
