<svg xmlns="http://www.w3.org/2000/svg" fill="white" viewBox="0 0 24 24">
  <path d="M23 3a10.9 10.9 0 0 1-3.14 1.53A4.48 4.48 0 0 0 22.4.36a9.05 9.05 0 0 1-2.83 1.08A4.52 4.52 0 0 0 16.11 0c-2.5 0-4.52 2.12-4.52 4.73 0 .37.04.73.11 1.07A12.85 12.85 0 0 1 3.1.9a4.84 4.84 0 0 0-.61 2.38c0 1.64.8 3.08 2.01 3.93A4.44 4.44 0 0 1 2 6.3v.06c0 2.29 1.56 4.2 3.64 4.63a4.5 4.5 0 0 1-2.04.08c.58 1.89 2.25 3.27 4.23 3.31A9.06 9.06 0 0 1 1 18.57 12.8 12.8 0 0 0 7.29 20c8.8 0 13.62-7.62 13.62-14.23 0-.22 0-.43-.02-.64A9.93 9.93 0 0 0 23 3Z"/>
</svg>
